<svg width="30" height="30" viewBox="0 0 30 30" fill="none" xmlns="http://www.w3.org/2000/svg">
<rect x="0.3" y="0.3" width="29.4" height="29.4" rx="7.7" fill="url(#paint0_linear_667_1120)" stroke="#394757" stroke-width="0.6"/>
<g clip-path="url(#clip0_667_1120)">
<path d="M8 15C8 16.3845 8.41054 17.7378 9.17971 18.889C9.94888 20.0401 11.0421 20.9373 12.3212 21.4672C13.6003 21.997 15.0078 22.1356 16.3656 21.8655C17.7235 21.5954 18.9708 20.9287 19.9497 19.9497C20.9287 18.9708 21.5954 17.7235 21.8655 16.3656C22.1356 15.0078 21.997 13.6003 21.4672 12.3212C20.9373 11.0421 20.0401 9.94888 18.889 9.17971C17.7378 8.41054 16.3845 8 15 8C13.1441 8.00201 11.3648 8.74015 10.0525 10.0525C8.74014 11.3648 8.002 13.1441 8 15ZM20.8333 15C20.8333 16.1537 20.4912 17.2815 19.8502 18.2408C19.2093 19.2001 18.2982 19.9478 17.2323 20.3893C16.1664 20.8308 14.9935 20.9463 13.862 20.7212C12.7304 20.4962 11.691 19.9406 10.8752 19.1248C10.0594 18.309 9.50383 17.2696 9.27875 16.138C9.05367 15.0065 9.16919 13.8336 9.6107 12.7677C10.0522 11.7018 10.7999 10.7907 11.7592 10.1498C12.7185 9.50879 13.8463 9.16667 15 9.16667C16.5466 9.16837 18.0293 9.78349 19.1229 10.8771C20.2165 11.9707 20.8316 13.4534 20.8333 15ZM13.0085 14.1752L15.7583 11.4265L16.5814 12.2513L13.8333 15L16.5592 17.7259L15.7344 18.5508L13.0085 15.8248C12.7898 15.6061 12.6669 15.3094 12.6669 15C12.6669 14.6906 12.7898 14.3939 13.0085 14.1752Z" fill="white"/>
</g>
<defs>
<linearGradient id="paint0_linear_667_1120" x1="0" y1="15" x2="30" y2="15" gradientUnits="userSpaceOnUse">
<stop stop-color="#9133EA"/>
<stop offset="1" stop-color="#2962EB"/>
</linearGradient>
<clipPath id="clip0_667_1120">
<rect width="14" height="14" fill="white" transform="matrix(-1 0 0 1 22 8)"/>
</clipPath>
</defs>
</svg>
