<svg width="30" height="30" viewBox="0 0 30 30" fill="none" xmlns="http://www.w3.org/2000/svg">
<rect x="-0.3" y="0.3" width="29.4" height="29.4" rx="7.7" transform="matrix(-1 0 0 1 29.4 0)" fill="url(#paint0_linear_667_1125)" stroke="#394757" stroke-width="0.6"/>
<g clip-path="url(#clip0_667_1125)">
<path d="M22 15C22 16.3845 21.5895 17.7378 20.8203 18.889C20.0511 20.0401 18.9579 20.9373 17.6788 21.4672C16.3997 21.997 14.9922 22.1356 13.6344 21.8655C12.2765 21.5954 11.0292 20.9287 10.0503 19.9497C9.07129 18.9708 8.4046 17.7235 8.13451 16.3656C7.86441 15.0078 8.00303 13.6003 8.53285 12.3212C9.06266 11.0421 9.95987 9.94888 11.111 9.17971C12.2622 8.41054 13.6155 8 15 8C16.8559 8.00201 18.6352 8.74015 19.9475 10.0525C21.2599 11.3648 21.998 13.1441 22 15ZM9.16667 15C9.16667 16.1537 9.50879 17.2815 10.1498 18.2408C10.7907 19.2001 11.7018 19.9478 12.7677 20.3893C13.8336 20.8308 15.0065 20.9463 16.138 20.7212C17.2696 20.4962 18.309 19.9406 19.1248 19.1248C19.9406 18.309 20.4962 17.2696 20.7213 16.138C20.9463 15.0065 20.8308 13.8336 20.3893 12.7677C19.9478 11.7018 19.2001 10.7907 18.2408 10.1498C17.2815 9.50879 16.1537 9.16667 15 9.16667C13.4534 9.16837 11.9707 9.78349 10.8771 10.8771C9.7835 11.9707 9.16837 13.4534 9.16667 15ZM16.9915 14.1752L14.2417 11.4265L13.4186 12.2513L16.1667 15L13.4408 17.7259L14.2656 18.5508L16.9915 15.8248C17.2102 15.6061 17.3331 15.3094 17.3331 15C17.3331 14.6906 17.2102 14.3939 16.9915 14.1752Z" fill="white"/>
</g>
<defs>
<linearGradient id="paint0_linear_667_1125" x1="0" y1="15" x2="30" y2="15" gradientUnits="userSpaceOnUse">
<stop stop-color="#9133EA"/>
<stop offset="1" stop-color="#2962EB"/>
</linearGradient>
<clipPath id="clip0_667_1125">
<rect width="14" height="14" fill="white" transform="translate(8 8)"/>
</clipPath>
</defs>
</svg>
