<svg width="15" height="15" viewBox="0 0 15 15" fill="none" xmlns="http://www.w3.org/2000/svg">
<g clip-path="url(#clip0_600_1104)">
<mask id="mask0_600_1104" style="mask-type:luminance" maskUnits="userSpaceOnUse" x="0" y="0" width="15" height="15">
<path d="M14.5137 0H0V14.5137H14.5137V0Z" fill="white"/>
</mask>
<g mask="url(#mask0_600_1104)">
<path d="M1.51627 3.45832C2.18163 3.45832 2.72102 2.91894 2.72102 2.25358C2.72102 1.58821 2.18163 1.04883 1.51627 1.04883C0.850907 1.04883 0.311523 1.58821 0.311523 2.25358C0.311523 2.91894 0.850907 3.45832 1.51627 3.45832Z" stroke="white" stroke-width="0.372054"/>
<path d="M1.51627 13.4365C2.18163 13.4365 2.72102 12.8971 2.72102 12.2317C2.72102 11.5664 2.18163 11.027 1.51627 11.027C0.850907 11.027 0.311523 11.5664 0.311523 12.2317C0.311523 12.8971 0.850907 13.4365 1.51627 13.4365Z" stroke="white" stroke-width="0.372054"/>
<path d="M2.72102 7.24262C2.72102 7.92643 2.17886 8.47571 1.51627 8.47571C0.853677 8.47571 0.311523 7.92643 0.311523 7.24262C0.311523 6.5588 0.853677 6.00952 1.51627 6.00952C2.17886 6.00952 2.72102 6.5588 2.72102 7.24262Z" fill="white" stroke="white" stroke-width="0.372054"/>
<path d="M8.13511 2.25358C8.13511 2.91755 7.59079 3.45832 6.91619 3.45832C6.24158 3.45832 5.69727 2.91755 5.69727 2.25358C5.69727 1.58961 6.24158 1.04883 6.91619 1.04883C7.59079 1.04883 8.13511 1.58961 8.13511 2.25358Z" stroke="white" stroke-width="0.372054"/>
<path d="M8.13511 12.2317C8.13511 12.8957 7.59079 13.4365 6.91619 13.4365C6.24158 13.4365 5.69727 12.8957 5.69727 12.2317C5.69727 11.5678 6.24158 11.027 6.91619 11.027C7.59079 11.027 8.13511 11.5678 8.13511 12.2317Z" stroke="white" stroke-width="0.372054"/>
<path d="M8.13511 7.24262C8.13511 7.92501 7.58801 8.47571 6.91619 8.47571C6.24436 8.47571 5.69727 7.92501 5.69727 7.24262C5.69727 6.56022 6.24436 6.00952 6.91619 6.00952C7.58801 6.00952 8.13511 6.56022 8.13511 7.24262Z" fill="white" stroke="white" stroke-width="0.372054"/>
<path d="M12.1745 3.45832C12.8398 3.45832 13.3792 2.91894 13.3792 2.25358C13.3792 1.58821 12.8398 1.04883 12.1745 1.04883C11.5091 1.04883 10.9697 1.58821 10.9697 2.25358C10.9697 2.91894 11.5091 3.45832 12.1745 3.45832Z" fill="white" stroke="white" stroke-width="0.372054"/>
<path d="M12.1745 13.4365C12.8398 13.4365 13.3792 12.8971 13.3792 12.2317C13.3792 11.5664 12.8398 11.027 12.1745 11.027C11.5091 11.027 10.9697 11.5664 10.9697 12.2317C10.9697 12.8971 11.5091 13.4365 12.1745 13.4365Z" fill="white" stroke="white" stroke-width="0.372054"/>
<path d="M7.45508 6.13555L10.9794 2.61121L11.5519 3.18372L8.02757 6.70804L7.45508 6.13555Z" fill="white"/>
<path d="M2.74902 6.83167H5.66876V7.62538H2.74902V6.83167Z" fill="white"/>
<path d="M8.02757 7.61719L11.5519 11.1415L10.9794 11.714L7.45508 8.18968L8.02757 7.61719Z" fill="white"/>
<path d="M11.9054 4.93237C11.4681 4.93237 11.0406 5.06288 10.677 5.3074C10.3134 5.5519 10.03 5.89943 9.86263 6.30604C9.6953 6.71265 9.6515 7.16008 9.73683 7.59175C9.82212 8.02339 10.0327 8.41988 10.342 8.7311C10.6512 9.04229 11.0451 9.25424 11.474 9.3401C11.9029 9.42597 12.3475 9.38189 12.7515 9.21348C13.1556 9.04504 13.5009 8.75984 13.7438 8.39388C13.9868 8.02795 14.1165 7.59773 14.1165 7.15761H13.7362C13.7362 7.52204 13.6288 7.87828 13.4277 8.18128C13.2265 8.48428 12.9405 8.72044 12.606 8.85988C12.2715 8.99934 11.9034 9.03583 11.5482 8.96473C11.1931 8.89364 10.8669 8.71817 10.6108 8.46047C10.3548 8.20279 10.1804 7.87448 10.1098 7.51708C10.0391 7.15965 10.0754 6.78919 10.214 6.45251C10.3525 6.11583 10.5872 5.82805 10.8883 5.6256C11.1893 5.42314 11.5433 5.31509 11.9054 5.31509V4.93237Z" fill="white"/>
<path d="M13.9325 6.6615L14.534 7.17174H13.3311L13.9325 6.6615Z" fill="white"/>
<path d="M13.0642 7.00783C13.0642 7.49786 12.595 7.92984 11.9701 7.92984C11.3451 7.92984 10.876 7.49786 10.876 7.00783C10.876 6.51782 11.3451 6.08582 11.9701 6.08582C12.595 6.08582 13.0642 6.51782 13.0642 7.00783Z" fill="white" stroke="white" stroke-width="0.372054"/>
<path d="M10.9691 7.61829L11.5948 8.00933L10.9221 8.22834L10.7657 8.25964L10.7344 8.24399L10.7344 8.21269L10.9691 7.61829Z" fill="white"/>
</g>
</g>
<defs>
<clipPath id="clip0_600_1104">
<rect width="14.5137" height="14.5137" fill="white"/>
</clipPath>
</defs>
</svg>
