<svg width="15" height="15" viewBox="0 0 15 15" fill="none" xmlns="http://www.w3.org/2000/svg">
<g clip-path="url(#clip0_634_31972)">
<mask id="mask0_634_31972" style="mask-type:luminance" maskUnits="userSpaceOnUse" x="0" y="0" width="15" height="15">
<path d="M14.6885 0H0V14.6885H14.6885V0Z" fill="white"/>
</mask>
<g mask="url(#mask0_634_31972)">
<path d="M1.53542 3.49993C2.2088 3.49993 2.75469 2.95404 2.75469 2.28066C2.75469 1.60728 2.2088 1.0614 1.53542 1.0614C0.862044 1.0614 0.316162 1.60728 0.316162 2.28066C0.316162 2.95404 0.862044 3.49993 1.53542 3.49993Z" stroke="#4A3AFF" stroke-width="0.376537"/>
<path d="M1.53542 13.5983C2.2088 13.5983 2.75469 13.0524 2.75469 12.3791C2.75469 11.7057 2.2088 11.1598 1.53542 11.1598C0.862044 11.1598 0.316162 11.7057 0.316162 12.3791C0.316162 13.0524 0.862044 13.5983 1.53542 13.5983Z" stroke="#4A3AFF" stroke-width="0.376537"/>
<path d="M2.75469 7.32986C2.75469 8.02191 2.206 8.57781 1.53542 8.57781C0.864847 8.57781 0.316162 8.02191 0.316162 7.32986C0.316162 6.63781 0.864847 6.08191 1.53542 6.08191C2.206 6.08191 2.75469 6.63781 2.75469 7.32986Z" fill="#4A3AFF" stroke="#4A3AFF" stroke-width="0.376537"/>
<path d="M8.23418 2.28066C8.23418 2.95263 7.6833 3.49993 7.00057 3.49993C6.31784 3.49993 5.76697 2.95263 5.76697 2.28066C5.76697 1.6087 6.31784 1.0614 7.00057 1.0614C7.6833 1.0614 8.23418 1.6087 8.23418 2.28066Z" stroke="#4A3AFF" stroke-width="0.376537"/>
<path d="M8.23418 12.3791C8.23418 13.051 7.6833 13.5983 7.00057 13.5983C6.31784 13.5983 5.76697 13.051 5.76697 12.3791C5.76697 11.7071 6.31784 11.1598 7.00057 11.1598C7.6833 11.1598 8.23418 11.7071 8.23418 12.3791Z" stroke="#4A3AFF" stroke-width="0.376537"/>
<path d="M8.23418 7.32986C8.23418 8.02048 7.68049 8.57781 7.00057 8.57781C6.32066 8.57781 5.76697 8.02048 5.76697 7.32986C5.76697 6.63924 6.32066 6.08191 7.00057 6.08191C7.68049 6.08191 8.23418 6.63924 8.23418 7.32986Z" fill="#4A3AFF" stroke="#4A3AFF" stroke-width="0.376537"/>
<path d="M12.3223 3.49993C12.9957 3.49993 13.5416 2.95404 13.5416 2.28066C13.5416 1.60728 12.9957 1.0614 12.3223 1.0614C11.6489 1.0614 11.103 1.60728 11.103 2.28066C11.103 2.95404 11.6489 3.49993 12.3223 3.49993Z" fill="#4A3AFF" stroke="#4A3AFF" stroke-width="0.376537"/>
<path d="M12.3223 13.5983C12.9957 13.5983 13.5416 13.0524 13.5416 12.3791C13.5416 11.7057 12.9957 11.1598 12.3223 11.1598C11.6489 11.1598 11.103 11.7057 11.103 12.3791C11.103 13.0524 11.6489 13.5983 12.3223 13.5983Z" fill="#4A3AFF" stroke="#4A3AFF" stroke-width="0.376537"/>
<path d="M7.54565 6.20938L11.1124 2.64258L11.6919 3.22199L8.12505 6.78877L7.54565 6.20938Z" fill="#4A3AFF"/>
<path d="M2.78333 6.91394H5.73824V7.71722H2.78333V6.91394Z" fill="#4A3AFF"/>
<path d="M8.12505 7.70886L11.6918 11.2756L11.1124 11.855L7.54565 8.28826L8.12505 7.70886Z" fill="#4A3AFF"/>
<path d="M12.0497 4.9917C11.6071 4.9917 11.1745 5.12378 10.8065 5.37125C10.4385 5.61869 10.1517 5.97041 9.98233 6.38192C9.81299 6.79342 9.76866 7.24624 9.85501 7.68311C9.94134 8.11995 10.1545 8.52122 10.4674 8.83619C10.7804 9.15113 11.1791 9.36564 11.6132 9.45254C12.0472 9.53943 12.4972 9.49482 12.906 9.32438C13.3149 9.15392 13.6644 8.86528 13.9103 8.49491C14.1562 8.12457 14.2874 7.68917 14.2874 7.24375H13.9026C13.9026 7.61257 13.7939 7.9731 13.5903 8.27975C13.3867 8.5864 13.0973 8.8254 12.7588 8.96652C12.4202 9.10767 12.0477 9.14459 11.6882 9.07264C11.3288 9.00069 10.9987 8.82311 10.7395 8.5623C10.4804 8.30152 10.304 7.96925 10.2325 7.60755C10.161 7.24581 10.1977 6.87088 10.3379 6.53015C10.4781 6.18942 10.7156 5.89817 11.0203 5.69328C11.325 5.48838 11.6832 5.37902 12.0497 5.37902V4.9917Z" fill="#4A3AFF"/>
<path d="M14.101 6.7417L14.7097 7.25809H13.4923L14.101 6.7417Z" fill="#4A3AFF"/>
<path d="M13.2226 7.0923C13.2226 7.58824 12.7478 8.02543 12.1153 8.02543C11.4829 8.02543 11.0081 7.58824 11.0081 7.0923C11.0081 6.59639 11.4829 6.15918 12.1153 6.15918C12.7478 6.15918 13.2226 6.59639 13.2226 7.0923Z" fill="#4A3AFF" stroke="#4A3AFF" stroke-width="0.376537"/>
<path d="M11.102 7.70996L11.7353 8.10572L11.0545 8.32737L10.8962 8.35904L10.8645 8.3432L10.8645 8.31153L11.102 7.70996Z" fill="#4A3AFF"/>
</g>
</g>
<defs>
<clipPath id="clip0_634_31972">
<rect width="14.6885" height="14.6885" fill="white"/>
</clipPath>
</defs>
</svg>
